<svg xmlns="http://www.w3.org/2000/svg" viewBox="0 0 800 600"><rect width="800" height="600" fill="#fffaf0"/><ellipse cx="400" cy="500" rx="250" ry="35" fill="#eadfc9"/><g transform="translate(270 80)"><path d="M130 55 C115 25 120 5 145 -10" fill="none" stroke="#4d8b43" stroke-width="18" stroke-linecap="round"/><path d="M145 10 C105 28 82 58 75 95 C35 120 15 175 25 245 C35 340 100 405 165 405 C230 405 295 340 305 245 C315 175 295 120 255 95 C248 58 225 28 185 10 C175 55 155 72 145 10Z" fill="#c98c55"/><path d="M75 110 C115 135 205 135 255 110" fill="none" stroke="#a96c3e" stroke-width="10" opacity=".7"/><path d="M60 175 C110 195 220 195 270 175" fill="none" stroke="#a96c3e" stroke-width="9" opacity=".7"/><path d="M65 245 C115 260 215 260 265 245" fill="none" stroke="#a96c3e" stroke-width="8" opacity=".7"/></g><text x="400" y="565" text-anchor="middle" font-family="Georgia,serif" font-size="28" fill="#315c37">FRESH ONIONS</text></svg>